<?xml version="1.0" encoding="utf-8"?><svg xmlns="http://www.w3.org/2000/svg" xmlns:xlink="http://www.w3.org/1999/xlink"><symbol fill="none" viewBox="0 0 7 10" id="arrow" xmlns="http://www.w3.org/2000/svg"><path d="M.307 9.12a.418.418 0 00.43-.027l5.417-3.75a.417.417 0 000-.685L.737.908a.417.417 0 00-.654.342v7.5a.417.417 0 00.224.37z" fill="#195557"/></symbol><symbol fill="none" viewBox="0 0 45 38" id="cart" xmlns="http://www.w3.org/2000/svg"><path d="M12.643 37.772c1.479 0 2.677-1.126 2.677-2.515 0-1.388-1.198-2.514-2.677-2.514-1.478 0-2.676 1.126-2.676 2.514 0 1.39 1.198 2.515 2.676 2.515zM28.904 37.772c1.478 0 2.676-1.126 2.676-2.515 0-1.388-1.198-2.514-2.676-2.514-1.478 0-2.677 1.126-2.677 2.514 0 1.39 1.199 2.515 2.677 2.515zM36.136 8.011a1.18 1.18 0 00-.409-.303 1.254 1.254 0 00-.507-.11H10.455l.773 2.235h22.434l-3.176 13.41H12.643L7.207 7.073a1.11 1.11 0 00-.297-.454 1.207 1.207 0 00-.488-.273L1.546 4.938a1.268 1.268 0 00-.91.08c-.28.14-.49.378-.583.663-.093.284-.062.592.086.855s.402.46.705.547l4.27 1.23 5.46 16.204-1.951 1.498-.155.145a2.873 2.873 0 00-.773 1.878 2.857 2.857 0 00.678 1.91c.324.371.736.665 1.203.86.467.194.976.282 1.486.259h19.852c.316 0 .618-.118.841-.328.223-.21.349-.494.349-.79 0-.297-.126-.58-.349-.79a1.23 1.23 0 00-.84-.328H10.87a.835.835 0 01-.387-.109.772.772 0 01-.281-.273.713.713 0 01.002-.735l2.867-2.235h18.365a1.24 1.24 0 00.761-.236c.217-.16.368-.384.429-.636l3.77-15.646a1.052 1.052 0 00-.013-.503 1.096 1.096 0 00-.248-.447z" fill="#195557"/></symbol><symbol fill="none" viewBox="0 0 6 6" id="check" xmlns="http://www.w3.org/2000/svg"><path fill-rule="evenodd" clip-rule="evenodd" d="M4.765.765a.516.516 0 01.73-.002.53.53 0 01.012.738L2.744 5.002a.52.52 0 01-.575.13.519.519 0 01-.173-.116L.166 3.16a.526.526 0 01-.128-.582.527.527 0 01.287-.29.513.513 0 01.574.128l1.45 1.469L4.751.78a.165.165 0 01.014-.015z" fill="#195557"/></symbol><symbol viewBox="0 0 40 40" id="facebook" xmlns="http://www.w3.org/2000/svg"><path d="M30.59 9.373C27.673 6.472 24.11 5 20 5c-4.148 0-7.722 1.473-10.622 4.375C6.473 12.277 5 15.853 5 20c0 4.108 1.472 7.672 4.373 10.59C12.275 33.517 15.85 35 20 35c4.112 0 7.675-1.483 10.593-4.405C33.518 27.673 35 24.108 35 20c0-4.147-1.483-7.723-4.41-10.627zm-2.353 18.865c-1.895 1.899-4.06 2.98-6.57 3.309v-8.214H25V20h-3.333v-2.333a1 1 0 011.001-1H25v-3.334h-2.328c-1.237 0-2.269.455-3.095 1.37-.827.912-1.244 2.025-1.244 3.347V20H15v3.333h3.333v8.217c-2.536-.325-4.71-1.408-6.595-3.307C9.447 25.937 8.333 23.24 8.333 20c0-3.277 1.112-5.98 3.404-8.267 2.283-2.288 4.986-3.4 8.263-3.4 3.242 0 5.937 1.114 8.242 3.405 2.305 2.287 3.425 4.99 3.425 8.262 0 3.235-1.122 5.932-3.43 8.238z"/></symbol><symbol fill="none" viewBox="0 0 43 43" id="heart" xmlns="http://www.w3.org/2000/svg"><path d="M38.759 11.909a10.92 10.92 0 00-2.39-3.477 11.102 11.102 0 00-3.527-2.33 11.143 11.143 0 00-4.3-.853A11.215 11.215 0 0021.5 7.731a11.215 11.215 0 00-7.042-2.482c-1.49 0-2.935.286-4.3.852A11.08 11.08 0 006.63 8.432a10.852 10.852 0 00-3.272 7.756c0 1.398.286 2.855.853 4.338.474 1.239 1.155 2.523 2.024 3.821 1.377 2.053 3.271 4.195 5.623 6.366 3.896 3.599 7.756 6.085 7.92 6.185l.994.639a1.35 1.35 0 001.45 0l.995-.639c.163-.105 4.018-2.586 7.92-6.185 2.35-2.17 4.245-4.313 5.622-6.366.87-1.298 1.554-2.582 2.024-3.821.567-1.483.852-2.94.852-4.338a10.69 10.69 0 00-.877-4.279zM21.5 34.215S6.55 24.637 6.55 16.188c0-4.279 3.54-7.748 7.908-7.748 3.07 0 5.732 1.714 7.042 4.216 1.31-2.502 3.973-4.216 7.042-4.216 4.367 0 7.907 3.469 7.907 7.748 0 8.449-14.949 18.027-14.949 18.027z" fill="#195557"/><path d="M28.542 8.44c-3.07 0-5.732 1.714-7.042 4.216-1.31-2.502-3.973-4.216-7.042-4.216-4.367 0-7.907 3.469-7.907 7.748 0 8.449 14.949 18.027 14.949 18.027s14.95-9.578 14.95-18.027c0-4.279-3.54-7.748-7.908-7.748z" fill="#000" fill-opacity=".1"/></symbol><symbol fill="none" viewBox="0 0 20 18" id="heart-white" xmlns="http://www.w3.org/2000/svg"><path d="M18.83 4.093a5.586 5.586 0 00-1.222-1.779A5.7 5.7 0 0013.603.685 5.738 5.738 0 0010 1.956 5.738 5.738 0 006.397.685a5.7 5.7 0 00-4.005 1.63A5.552 5.552 0 00.72 6.281c0 .716.146 1.461.436 2.22.243.633.59 1.29 1.035 1.955.705 1.05 1.674 2.146 2.877 3.257a32.149 32.149 0 004.052 3.164l.51.327a.69.69 0 00.74 0l.51-.327a32.567 32.567 0 004.052-3.164c1.203-1.111 2.172-2.207 2.876-3.257a9.834 9.834 0 001.036-1.955c.29-.759.436-1.504.436-2.22a5.47 5.47 0 00-.449-2.189zM10 15.506s-7.648-4.901-7.648-9.224c0-2.189 1.81-3.964 4.045-3.964 1.57 0 2.933.877 3.603 2.157a4.057 4.057 0 013.603-2.157c2.234 0 4.045 1.775 4.045 3.964 0 4.323-7.648 9.223-7.648 9.223z" fill="#fff"/><path d="M13.603 2.318c-1.57 0-2.933.877-3.603 2.157a4.057 4.057 0 00-3.603-2.157c-2.234 0-4.045 1.775-4.045 3.964 0 4.323 7.648 9.223 7.648 9.223s7.648-4.9 7.648-9.223c0-2.189-1.81-3.964-4.045-3.964z" fill="#000" fill-opacity=".1"/></symbol><symbol fill="none" viewBox="0 0 72 72" id="hedgehog" xmlns="http://www.w3.org/2000/svg"><path d="M13.588 35.586S9.42 40.752 9.92 43.919l-2.833 2.5v1.5s6.833 2.833 13.333.833v2.5l.167 2.5 3.333 1.333s3.833-.666 4.833-6c0 0 4 1.5 5.667 5.834l4.667-.334s.666-2.5-.167-4.166l20.5-.334 2 1.834v2l1 1.166h2.167l1.666-1.833-1.833-6.5 1.5-4.667s-17.333 10.5-41.333-3.166l-1.833-3.834s-3.834.667-3.667 1.667c0 0-.834-2.666-5.5-1.166h.001z" fill="#9B9B9A"/><path d="M24.463 26.638c-.856 2.25-1.833 3.294-2.614 4.086a1.559 1.559 0 01-2.074.146l-1.184-.926-3.424 5.054a2.43 2.43 0 01-2.012 1.067s-2.672 3.271-3.602 6.806c-.26.991-.882 1.85-1.704 2.462l-.381.285s-2.35 1.962.455 2.815c0 0 9.623 3.039 14.956-1.211m18.5-24.917s-1.824 1.227-3.2 1.489c-.59.113-1.162.23-1.715.35l-3.168-.672c-1.571 1.795-3.754 2.65-5.291 3.324m31.958 2.009c-1.986 0-2.55-.153-3.67-1.057a9.295 9.295 0 01-2.172-2.507l-.408-.69c-2.641 0-5.467-.32-8.048-.744M66.254 38.5c-3.096-1.154-3.534-4.415-4.558-5.735m-40.878 18.98l-.227.473a1.999 1.999 0 001.802 2.867h1.627a2 2 0 001.76-1.048l2.845-5.263s3.501 1.45 4.754 5.036c.273.781 1.049 1.275 1.876 1.275h2.023a1.996 1.996 0 001.99-2.207c-.103-.928-.291-1.89-.633-2.313 0 0 15.156.437 20.007-.612 1.024-.222 2.044.398 2.27 1.421.11.496.175 1.052.142 1.637-.064 1.14.853 2.074 1.994 2.074h.39c1.124 0 2-.8 2.073-1.842.123-1.744-.014-4.392-1.548-6.431 0 0 1.133-.992 1.112-4.087M19.21 37.218s2.124-3.327 4.02-.342c1.279 2.015-.308 5.042-1.475 6.798a2.097 2.097 0 01-2.544.776m8.21-9.853l5-4.125m-.875 9.648l6-2.058m-.625-5.297l6.047-2.793m-3.024 13.5l6.852-.747m2-6.092l6.875 1.232m-8.727-5.375l5.454-2.503m.642 13.782l6.261 1.677" stroke="#195557" stroke-width="2" stroke-miterlimit="10" stroke-linecap="round" stroke-linejoin="round"/></symbol><symbol fill="none" viewBox="0 0 37 37" id="info" xmlns="http://www.w3.org/2000/svg"><path d="M18.5 2.313C9.56 2.313 2.312 9.56 2.312 18.5c0 8.94 7.249 16.188 16.188 16.188 8.94 0 16.188-7.249 16.188-16.188 0-8.94-7.249-16.188-16.188-16.188zm0 29.628c-7.422 0-13.441-6.02-13.441-13.441 0-7.422 6.02-13.441 13.441-13.441 7.422 0 13.441 6.02 13.441 13.441 0 7.422-6.02 13.441-13.441 13.441z" fill="#195557"/><path d="M16.766 12.14a1.735 1.735 0 103.469 0 1.735 1.735 0 00-3.47 0zm2.601 4.047h-1.734a.29.29 0 00-.29.29v9.828c0 .159.13.289.29.289h1.734a.29.29 0 00.29-.29v-9.827a.29.29 0 00-.29-.29z" fill="#195557"/></symbol><symbol viewBox="0 0 40 40" id="instagram" xmlns="http://www.w3.org/2000/svg"><path d="M20 5C11.667 5 5 11.667 5 20s6.667 15 15 15 15-6.667 15-15S28.333 5 20 5zm0 11.667c1.833 0 3.333 1.5 3.333 3.333 0 1.833-1.5 3.333-3.333 3.333A3.343 3.343 0 0116.667 20c0-1.833 1.5-3.333 3.333-3.333zm4.667-3.334c0-1.166 1-2 2-2s2 1 2 2-.834 2-2 2c-1.167 0-2-.833-2-2zM20 31.667C13.5 31.667 8.333 26.5 8.333 20h5c0 3.667 3 6.667 6.667 6.667s6.667-3 6.667-6.667h5c0 6.5-5.167 11.667-11.667 11.667z"/></symbol><symbol fill="none" viewBox="0 0 10 6" id="list-arrow" xmlns="http://www.w3.org/2000/svg"><path d="M1.5.2L5 3.7 8.5.2l1.4.7L5 5.8.1.9 1.5.2z" fill="#195557"/></symbol><symbol viewBox="0 0 122 57" id="logo" xmlns="http://www.w3.org/2000/svg"><path d="M69.752 22.236c0 .433.35.783.783.783h1.436a.783.783 0 000-1.566h-1.436a.783.783 0 00-.783.783z"/><path d="M80.006 26.48c-.161 0-.319.015-.472.041l-5.161-8.562a.81.81 0 00.058-.08l3.466-5.504a.783.783 0 00-.576-1.196l-5.686-.631.645-5.684a.783.783 0 00-1.037-.828l-5.399 1.89L63.959.526A.783.783 0 0062.665.23l-4.04 4.052L54.585.23a.783.783 0 00-1.293.295l-1.886 5.401-5.4-1.89a.783.783 0 00-1.036.828l.645 5.684-5.685.631a.783.783 0 00-.577 1.196l3.048 4.84-4.843 3.043a.783.783 0 000 1.326l4.843 3.042-3.048 4.84a.783.783 0 00.662 1.201l37.58.042a2.804 2.804 0 002.411 1.378 2.806 2.806 0 002.803-2.804 2.806 2.806 0 00-2.803-2.802zm-2.8 2.663l-13.96-.016c-1.85-6.262 2.73-11.132 8.07-13.206l6.805 11.29a2.797 2.797 0 00-.914 1.932zm-33.062-4.346a.784.784 0 00-.246-1.08l-4.452-2.796 4.452-2.796a.783.783 0 00.246-1.08l-2.8-4.448 5.224-.58a.783.783 0 00.692-.866l-.593-5.225 4.962 1.737a.784.784 0 00.998-.48l1.732-4.962 3.712 3.723a.783.783 0 001.109 0l3.712-3.723 1.732 4.962a.783.783 0 00.998.48l4.962-1.736-.594 5.224a.783.783 0 00.692.867l5.224.58-2.434 3.866-1.148-1.905a.783.783 0 00-.927-.335c-3.591 1.243-6.54 3.415-8.305 6.114-1.758 2.69-2.258 5.707-1.471 8.787l-20.187-.023 2.71-4.305zm35.862 5.723a1.238 1.238 0 01-1.237-1.236c0-.683.555-1.237 1.237-1.237s1.237.554 1.237 1.236c0 .682-.555 1.237-1.237 1.237zM16.104 55.545c.044 0 .066.044.066.132 0 .088-.022.132-.066.132-.513 0-.924-.007-1.232-.022l-1.694-.022-1.98.022c-.264.015-.623.022-1.078.022-.044 0-.066-.044-.066-.132 0-.088.022-.132.066-.132.543 0 .939-.037 1.188-.11.25-.073.418-.213.506-.418.088-.205.132-.535.132-.99v-5.06H4.84v5.06c0 .44.044.77.132.99.088.205.257.345.506.418.25.073.645.11 1.188.11.03 0 .044.044.044.132 0 .088-.015.132-.044.132-.513 0-.924-.007-1.232-.022l-1.914-.022-1.65.022a25.63 25.63 0 01-1.21.022c-.03 0-.044-.044-.044-.132 0-.088.015-.132.044-.132.513 0 .887-.037 1.122-.11a.732.732 0 00.484-.418c.088-.22.132-.55.132-.99V43.841c0-.44-.044-.763-.132-.968a.733.733 0 00-.484-.418c-.22-.088-.58-.132-1.078-.132-.044 0-.066-.044-.066-.132 0-.088.022-.132.066-.132l1.188.022c.675.03 1.217.044 1.628.044a49 49 0 001.936-.044l1.21-.022c.03 0 .044.044.044.132 0 .088-.015.132-.044.132-.528 0-.917.044-1.166.132a.874.874 0 00-.528.462c-.088.205-.132.528-.132.968v4.466h7.106v-4.466c0-.44-.044-.763-.132-.968-.088-.22-.257-.374-.506-.462-.25-.088-.645-.132-1.188-.132-.044 0-.066-.044-.066-.132 0-.088.022-.132.066-.132l1.078.022c.733.03 1.393.044 1.98.044.396 0 .96-.015 1.694-.044l1.232-.022c.044 0 .066.044.066.132 0 .088-.022.132-.066.132-.499 0-.873.044-1.122.132a.733.733 0 00-.484.418c-.073.205-.11.528-.11.968v10.186c0 .44.037.77.11.99.088.205.25.345.484.418.235.073.609.11 1.122.11zM27.713 52.311c0-.03.03-.044.088-.044a.15.15 0 01.11.044c.044.015.066.03.066.044a24.743 24.743 0 00-.22 3.124c0 .117-.022.205-.066.264-.044.044-.132.066-.264.066h-9.724c-.044 0-.066-.044-.066-.132 0-.088.022-.132.066-.132.47 0 .806-.037 1.012-.11a.66.66 0 00.44-.418c.073-.22.11-.55.11-.99V43.841c0-.44-.037-.763-.11-.968a.66.66 0 00-.44-.418c-.22-.088-.558-.132-1.012-.132-.044 0-.066-.044-.066-.132 0-.088.022-.132.066-.132h9.328c.146 0 .22.066.22.198l.044 2.926c0 .03-.044.051-.132.066-.073.015-.117 0-.132-.044-.235-.85-.63-1.481-1.188-1.892-.558-.41-1.29-.616-2.2-.616h-.66c-.44 0-.763.095-.968.286-.206.19-.308.484-.308.88v4.488h1.826c.85 0 1.503-.147 1.958-.44.454-.293.682-.704.682-1.232 0-.044.037-.066.11-.066.088 0 .132.022.132.066l-.022 1.98.022 1.056c.03.499.044.895.044 1.188 0 .03-.044.044-.132.044-.088 0-.132-.015-.132-.044 0-.601-.235-1.07-.704-1.408-.455-.352-1.115-.528-1.98-.528h-1.804v4.972c0 .425.08.74.242.946.161.205.418.308.77.308h.726c1.144 0 2.06-.235 2.75-.704.69-.47 1.195-1.195 1.518-2.178zM36.111 55.897c-.469 0-1.026-.022-1.671-.066-.235-.015-.529-.03-.88-.044a26.709 26.709 0 00-1.145-.022l-1.627.022c-.294.015-.69.022-1.189.022-.029 0-.044-.044-.044-.132 0-.088.015-.132.044-.132.47 0 .814-.037 1.035-.11a.66.66 0 00.44-.418c.087-.22.131-.55.131-.99V43.841c0-.44-.043-.763-.131-.968a.661.661 0 00-.44-.418c-.206-.088-.536-.132-.99-.132-.044 0-.066-.044-.066-.132 0-.088.021-.132.066-.132l1.166.022c.674.03 1.21.044 1.606.044.6 0 1.217-.022 1.848-.066.762-.03 1.275-.044 1.54-.044 1.48 0 2.793.293 3.938.88 1.158.587 2.053 1.386 2.684 2.398.63 1.012.945 2.149.945 3.41 0 1.423-.33 2.684-.99 3.784a6.737 6.737 0 01-2.64 2.53c-1.1.587-2.31.88-3.63.88zm-.22-.506c.94 0 1.768-.235 2.486-.704.72-.484 1.276-1.195 1.672-2.134.411-.939.617-2.06.617-3.366 0-1.247-.191-2.376-.572-3.388-.382-1.027-.925-1.833-1.629-2.42a3.703 3.703 0 00-2.442-.88c-.909 0-1.532.088-1.87.264-.337.176-.505.55-.505 1.122v9.9c0 .587.153 1.005.461 1.254.308.235.902.352 1.782.352zM53.45 56.073c-1.614 0-3.022-.308-4.225-.924-1.203-.616-2.12-1.452-2.75-2.508-.63-1.07-.946-2.259-.946-3.564 0-1.408.36-2.662 1.078-3.762.733-1.115 1.73-1.973 2.992-2.574 1.276-.616 2.699-.924 4.268-.924.69 0 1.386.059 2.09.176.704.103 1.269.242 1.694.418.132.044.213.103.242.176.044.059.074.169.088.33l.286 3.058c0 .044-.037.073-.11.088-.073.015-.124-.007-.154-.066-.513-1.13-1.224-2.01-2.134-2.64-.895-.63-1.921-.946-3.08-.946-1.496 0-2.64.52-3.432 1.562-.777 1.041-1.166 2.464-1.166 4.268 0 1.452.25 2.75.748 3.894.499 1.13 1.188 2.01 2.068 2.64a5.157 5.157 0 002.992.924c.601 0 1.063-.066 1.386-.198.323-.132.558-.389.704-.77.147-.381.22-.946.22-1.694 0-.763-.044-1.29-.132-1.584a.866.866 0 00-.572-.616c-.278-.103-.77-.154-1.474-.154-.088 0-.132-.059-.132-.176 0-.044.008-.08.022-.11.03-.044.059-.066.088-.066 1.247.073 2.252.11 3.014.11.748 0 1.526-.022 2.332-.066.03 0 .052.022.066.066.03.03.044.059.044.088 0 .103-.036.154-.11.154-.264-.015-.447.037-.55.154-.102.103-.169.323-.198.66-.03.323-.044.91-.044 1.76 0 .66.022 1.13.066 1.408.059.279.088.455.088.528 0 .088-.022.147-.066.176a.501.501 0 01-.198.088c-1.892.41-3.593.616-5.104.616zM71.176 52.311c0-.03.029-.044.088-.044a.15.15 0 01.11.044c.044.015.066.03.066.044a24.743 24.743 0 00-.22 3.124c0 .117-.022.205-.066.264-.044.044-.132.066-.264.066h-9.724c-.044 0-.066-.044-.066-.132 0-.088.022-.132.066-.132.469 0 .806-.037 1.012-.11a.66.66 0 00.44-.418c.073-.22.11-.55.11-.99V43.841c0-.44-.037-.763-.11-.968a.66.66 0 00-.44-.418c-.22-.088-.558-.132-1.012-.132-.044 0-.066-.044-.066-.132 0-.088.022-.132.066-.132h9.328c.146 0 .22.066.22.198l.044 2.926c0 .03-.044.051-.132.066-.074.015-.118 0-.132-.044-.235-.85-.631-1.481-1.188-1.892-.558-.41-1.291-.616-2.2-.616h-.66c-.44 0-.763.095-.968.286-.206.19-.308.484-.308.88v4.488h1.826c.85 0 1.503-.147 1.958-.44.454-.293.682-.704.682-1.232 0-.044.036-.066.11-.066.088 0 .132.022.132.066l-.022 1.98.022 1.056c.029.499.044.895.044 1.188 0 .03-.044.044-.132.044-.088 0-.132-.015-.132-.044 0-.601-.235-1.07-.704-1.408-.455-.352-1.115-.528-1.98-.528H65.17v4.972c0 .425.08.74.242.946.161.205.418.308.77.308h.726c1.144 0 2.06-.235 2.75-.704.689-.47 1.195-1.195 1.518-2.178zM88.506 55.545c.044 0 .066.044.066.132 0 .088-.022.132-.066.132-.513 0-.924-.007-1.232-.022l-1.694-.022-1.98.022c-.264.015-.623.022-1.078.022-.044 0-.066-.044-.066-.132 0-.088.022-.132.066-.132.543 0 .939-.037 1.188-.11.25-.073.418-.213.506-.418.088-.205.132-.535.132-.99v-5.06h-7.106v5.06c0 .44.044.77.132.99.088.205.257.345.506.418.25.073.646.11 1.188.11.03 0 .044.044.044.132 0 .088-.014.132-.044.132-.513 0-.924-.007-1.232-.022l-1.914-.022-1.65.022c-.293.015-.696.022-1.21.022-.029 0-.044-.044-.044-.132 0-.088.015-.132.044-.132.514 0 .888-.037 1.122-.11a.732.732 0 00.484-.418c.088-.22.132-.55.132-.99V43.841c0-.44-.044-.763-.132-.968a.733.733 0 00-.484-.418c-.22-.088-.579-.132-1.078-.132-.044 0-.066-.044-.066-.132 0-.088.022-.132.066-.132l1.188.022c.675.03 1.218.044 1.628.044.558 0 1.203-.015 1.936-.044l1.21-.022c.03 0 .044.044.044.132 0 .088-.014.132-.044.132-.528 0-.916.044-1.166.132a.873.873 0 00-.528.462c-.088.205-.132.528-.132.968v4.466h7.106v-4.466c0-.44-.044-.763-.132-.968-.088-.22-.256-.374-.506-.462-.249-.088-.645-.132-1.188-.132-.044 0-.066-.044-.066-.132 0-.088.022-.132.066-.132l1.078.022c.734.03 1.394.044 1.98.044.396 0 .961-.015 1.694-.044l1.232-.022c.044 0 .066.044.066.132 0 .088-.022.132-.066.132-.498 0-.872.044-1.122.132a.733.733 0 00-.484.418c-.073.205-.11.528-.11.968v10.186c0 .44.037.77.11.99.088.205.25.345.484.418.235.073.609.11 1.122.11zM97.255 56.073c-1.364 0-2.581-.315-3.652-.946a6.757 6.757 0 01-2.464-2.596 7.656 7.656 0 01-.858-3.586c0-1.51.381-2.801 1.144-3.872a7.154 7.154 0 012.926-2.442c1.203-.543 2.427-.814 3.674-.814 1.393 0 2.618.33 3.674.99a6.476 6.476 0 012.42 2.574 7.132 7.132 0 01.858 3.41c0 1.335-.352 2.56-1.056 3.674a7.563 7.563 0 01-2.838 2.64 7.813 7.813 0 01-3.828.968zm.726-.55c.822 0 1.555-.235 2.2-.704.66-.484 1.173-1.18 1.54-2.09.367-.924.55-2.024.55-3.3 0-1.35-.205-2.552-.616-3.608-.411-1.07-1.005-1.907-1.782-2.508-.777-.601-1.687-.902-2.728-.902-1.334 0-2.361.506-3.08 1.518-.718.997-1.078 2.398-1.078 4.202 0 1.423.213 2.699.638 3.828.44 1.115 1.034 1.987 1.782 2.618.763.63 1.62.946 2.574.946zM115.045 56.073c-1.613 0-3.021-.308-4.224-.924-1.203-.616-2.119-1.452-2.75-2.508-.631-1.07-.946-2.259-.946-3.564 0-1.408.359-2.662 1.078-3.762.733-1.115 1.731-1.973 2.992-2.574 1.276-.616 2.699-.924 4.268-.924.689 0 1.386.059 2.09.176.704.103 1.269.242 1.694.418.132.044.213.103.242.176.044.059.073.169.088.33l.286 3.058c0 .044-.037.073-.11.088-.073.015-.125-.007-.154-.066-.513-1.13-1.225-2.01-2.134-2.64-.895-.63-1.921-.946-3.08-.946-1.496 0-2.64.52-3.432 1.562-.777 1.041-1.166 2.464-1.166 4.268 0 1.452.249 2.75.748 3.894.499 1.13 1.188 2.01 2.068 2.64a5.158 5.158 0 002.992.924c.601 0 1.063-.066 1.386-.198.323-.132.557-.389.704-.77.147-.381.22-.946.22-1.694 0-.763-.044-1.29-.132-1.584a.867.867 0 00-.572-.616c-.279-.103-.77-.154-1.474-.154-.088 0-.132-.059-.132-.176a.24.24 0 01.022-.11c.029-.044.059-.066.088-.066 1.247.073 2.251.11 3.014.11.748 0 1.525-.022 2.332-.066.029 0 .051.022.066.066.029.03.044.059.044.088 0 .103-.037.154-.11.154-.264-.015-.447.037-.55.154-.103.103-.169.323-.198.66-.029.323-.044.91-.044 1.76 0 .66.022 1.13.066 1.408.059.279.088.455.088.528 0 .088-.022.147-.066.176a.497.497 0 01-.198.088c-1.892.41-3.593.616-5.104.616zM86.72 17.998H118v1.304H86.72v-1.304zM2 17.998h29.978v1.304H2v-1.304z"/></symbol><symbol fill="none" viewBox="0 0 13 11" id="phone" xmlns="http://www.w3.org/2000/svg"><path d="M8.667 7.818l1.12-.948c.15-.126.341-.212.549-.248.207-.036.423-.02.62.045l1.364.461c.2.069.37.185.492.336.12.15.186.328.188.51v2.115a.8.8 0 01-.09.36.936.936 0 01-.25.3c-.107.086-.232.152-.37.194a1.264 1.264 0 01-.43.056C2.3 10.495.372 3.642.008 1.019A.785.785 0 01.052.638.896.896 0 01.28.304C.38.207.506.13.646.078.786.026.938 0 1.091 0h2.414c.215 0 .426.056.604.158a.96.96 0 01.395.417L5.05 1.73c.08.166.1.35.059.525a.88.88 0 01-.294.465l-1.12.948s.645 3.693 4.973 4.15z" fill="#195557"/></symbol><symbol fill="none" viewBox="0 0 40 40" id="plus" xmlns="http://www.w3.org/2000/svg"><path d="M31.667 18.333h-10v-10a1.667 1.667 0 10-3.334 0v10h-10a1.666 1.666 0 100 3.334h10v10a1.667 1.667 0 003.334 0v-10h10a1.667 1.667 0 000-3.334z" fill="#195557"/></symbol><symbol fill="none" viewBox="0 0 46 46" id="syringe" xmlns="http://www.w3.org/2000/svg"><path d="M33.377 5.435L31.31 7.504l.539.539-3.28 3.279 2.022 2.067 3.282-3.326 2.066 2.067-3.325 3.277 2.067 2.023 3.279-3.28.539.54 2.068-2.069-7.189-7.186zm-7.906 5.031l-2.069 2.069.945.943-14.285 14.329-.494.493.09.676.494 4.581.046.493.133.09-4.67 4.672h4.088l2.921-2.92 4.356.45.675.09.493-.495 14.33-14.285.944.944 2.067-2.067-10.064-10.063zm.943 5.078l4.044 4.042-13.792 13.836-3.414-.404-.27-.27-.404-3.414 13.836-13.79z" fill="#195557"/></symbol><symbol fill="none" viewBox="0 0 20 19" id="syringe-white" xmlns="http://www.w3.org/2000/svg"><path d="M15.865.072l-1.169 1.17.305.304-1.853 1.853 1.142 1.169 1.855-1.88 1.168 1.168-1.88 1.852 1.169 1.144 1.853-1.854.305.305 1.169-1.17L15.865.073zm-4.468 2.844l-1.17 1.169.534.533-8.073 8.099-.28.279.051.381.279 2.59.026.279.075.05L.2 18.939H2.51l1.651-1.65 2.462.253.382.051.279-.28 8.1-8.074.533.534 1.168-1.169-5.688-5.687zm.533 2.87l2.285 2.284-7.795 7.82-1.93-.228-.152-.153-.229-1.93 7.82-7.793z" fill="#fff"/></symbol><symbol viewBox="0 0 40 40" id="twitter" xmlns="http://www.w3.org/2000/svg"><path d="M25.465 17.138c.597-.368.995-.868 1.188-1.506a6.425 6.425 0 01-1.741.638 2.585 2.585 0 00-1.97-.845c-.774 0-1.425.272-1.959.798a2.644 2.644 0 00-.796 1.93c0 .229.028.434.086.607-2.28-.08-4.165-1.023-5.651-2.843a2.74 2.74 0 00-.379 1.366c0 .964.407 1.727 1.217 2.289a3.016 3.016 0 01-1.217-.349c0 .689.202 1.264.609 1.77.405.5.928.82 1.565.955-.237.06-.48.09-.725.089a1.379 1.379 0 01-.494-.062c.174.562.494 1.015.957 1.363.462.35.995.534 1.595.55a5.327 5.327 0 01-3.392 1.157c-.313 0-.533-.003-.666-.028a7.557 7.557 0 004.201 1.221c1.585 0 2.987-.401 4.204-1.205 1.216-.798 2.118-1.783 2.695-2.945a7.988 7.988 0 00.868-3.623v-.348a5.78 5.78 0 001.363-1.424 5.751 5.751 0 01-1.558.445zM20 35c-4.15 0-7.725-1.483-10.627-4.41C6.472 27.672 5 24.108 5 20c0-4.147 1.473-7.723 4.378-10.625C12.278 6.473 15.852 5 20 5c4.11 0 7.673 1.472 10.59 4.373C33.517 12.277 35 15.853 35 20c0 4.108-1.482 7.673-4.407 10.595C27.675 33.517 24.112 35 20 35zm0-26.667c-3.277 0-5.98 1.112-8.263 3.4C9.445 14.02 8.333 16.723 8.333 20c0 3.24 1.114 5.937 3.405 8.242 2.287 2.305 4.989 3.425 8.262 3.425 3.238 0 5.933-1.122 8.237-3.429 2.308-2.306 3.43-5.003 3.43-8.238 0-3.272-1.12-5.975-3.425-8.262-2.305-2.291-5-3.405-8.242-3.405z"/></symbol></svg>